# xmcd
#
# Track frame offsets:
#	150
#	13365
#	38321
#	60629
#	79050
#	97511
#	120078
#	144582
#	158076
#	176981
#	194404
#	210132
#	231496
#	242681
#	255907
#	286095
#
# Disc length: 4042 seconds
#
# Revision: 1
# Processed by: cddbd v1.5.2PL0 Copyright (c) Steve Scherf et al.
# Submitted via: audiograbber 1.83.01
#
DISCID=c30fc810
DTITLE=WAGNER TISO - SANFONA Ã SINFÔNICA-CD-01-MANTO DAS ESTRELAS
DYEAR=1900
DGENRE=MPB
TTITLE0=CAICÓ(CANTIGAS)
TTITLE1=VIESTE
TTITLE2=OFERENDA
TTITLE3=1º BAILE ANTROPÓFAGO TRANSRACIAL DE SANTA CRUZ
TTITLE4=A FLOR E O CAIS
TTITLE5=SUÍTE MAR DA TARDE
TTITLE6=CORSÁRIO
TTITLE7=AMOR PROIBIDO
TTITLE8=NÓS
TTITLE9=DAMA SOFISTICADA(SOPHISTICATED LADY)
TTITLE10=O SONHO
TTITLE11=AMOR AMOR
TTITLE12=PEDRA DA LUA
TTITLE13=NUVEM CIGANA
TTITLE14=BAIÕES DE JÓ
TTITLE15=A TERCEIRA MARGEM DO RIO
EXTD=
EXTT0=
EXTT1=
EXTT2=
EXTT3=
EXTT4=
EXTT5=
EXTT6=
EXTT7=
EXTT8=
EXTT9=
EXTT10=
EXTT11=
EXTT12=
EXTT13=
EXTT14=
EXTT15=
PLAYORDER=
